<?xml version="1.0" encoding="utf-8"?>
<!-- Generator: Adobe Illustrator 25.2.1, SVG Export Plug-In . SVG Version: 6.00 Build 0)  -->
<svg version="1.1" id="logo" xmlns="http://www.w3.org/2000/svg" xmlns:xlink="http://www.w3.org/1999/xlink" x="0px" y="0px"
	 viewBox="0 0 425 289" style="enable-background:new 0 0 425 289;" xml:space="preserve">
<style type="text/css">
	.st0{fill:#55B848;}
</style>
<g>
	<path class="st0" d="M67.6,53.9c2-23,22.8-42.4,45.9-42.6c65.8-0.1,131.6,0,197.3,0c15.8-0.2,31.4,8.4,39.6,21.9
		c7.5,10.6,8.3,24.1,7.5,36.7c-9.7-0.3-19.5-0.3-29.2,0c-0.2-6.7,1.2-14-2.4-20c-3.1-5.5-9.1-9.5-15.6-9.1c-65-0.1-130.1,0-195.1,0
		c-8.2-0.4-16.6,5.5-18.3,13.7C96.1,61.1,97,68,96.7,74.8c-0.2,6.2,0,13.2,4.9,17.7c3.8,4.8,10,6.5,15.9,6.2c79.4,0,158.8,0,238.1,0
		c18.4-0.3,35.5,12.4,42.3,29.2c4.2,9.1,3.8,19.4,3.4,29.1c-9.8,0.1-19.5-0.6-29.3-0.5c-0.1-6.2,1-12.8-1.8-18.6
		c-2.8-6.3-9.7-10.2-16.5-9.9c-74.9-0.1-149.8,0-224.7,0c-7.2-0.1-14.4,0.4-21.5-0.6c-20.6-3-38.2-20.9-40-41.8
		C67.1,75,67.1,64.4,67.6,53.9z"/>
	<path class="st0" d="M23.4,128.1c10-0.8,20.1-0.6,30.1,0c-0.1,5.4-0.8,10.9,0.6,16.1c2.4,6.8,9.1,12,16.4,12.1
		c80.1,0,160.2,0,240.3,0c16.2,0,31.9,8.6,40.1,22.6c9.2,13.5,6.8,30.6,7.2,46c0.4,19.8-13,39.1-31.7,45.4
		c-9.4,3.4-19.4,2.3-29.2,2.5c-60.6,0-121.1,0-181.7,0c-16.4,0.3-32.6-8.4-41-22.5c-7-10.5-7.6-23.6-7.2-35.8c9.8,0,19.7,0.1,29.5,0
		c0.1,7.2-1.3,15.5,3.6,21.6c3.7,5.5,10.6,7.7,17,7.5c63.8-0.1,127.7,0,191.5,0c7.8,0.4,15.6-4.2,18.6-11.4c2-6.8,1.1-14,1.3-20.9
		c-0.1-6.1,0.5-13.1-3.5-18.3c-3.7-5.2-10.3-7.5-16.5-7.4c-79.4,0-158.8,0-238.2,0c-18.4,0-36.1-11.9-42.9-29
		C23.4,147.9,23.8,137.7,23.4,128.1z"/>
</g>
</svg>
